<svg xmlns="http://www.w3.org/2000/svg" viewBox="0 0 40.93 34.11"><defs><style>.cls-1,.cls-2{fill:none;stroke-linecap:round;stroke-linejoin:round;}.cls-1{stroke:#ce2029;}.cls-2{stroke:#cf2229;}</style></defs><title>Asset 2</title><g id="Layer_2" data-name="Layer 2"><g id="Layer_1-2" data-name="Layer 1"><g id="section1"><path class="cls-1" d="M19.63,4.66h1.18a2.39,2.39,0,0,1,2.39,2.39v6.18l3.25,5.19a.62.62,0,0,1-.57.85H23.21v6a2.39,2.39,0,0,1-2.39,2.39H10.06v6l-6-6H2.89A2.39,2.39,0,0,1,.5,25.25V7.05A2.39,2.39,0,0,1,2.89,4.66H19.63Z"/><path class="cls-2" d="M24.88,23.48h6v6l6-6H38a2.39,2.39,0,0,0,2.39-2.39V2.89A2.39,2.39,0,0,0,38,.5H20.11a2.39,2.39,0,0,0-2.39,2.39v7.38l-3.25,5.19a.62.62,0,0,0,.57.85h2.67v4.78a2.39,2.39,0,0,0,2.39,2.39h4.77Z"/></g></g></g></svg>